PathFileType	4	(X/Y/Z)	OpenSim_Sub04_CSStiffKnee_Gyro.trc
DataRate	CameraRate	NumFrames	NumMarkers	Units	OrigDataRate	OrigDataStartFrame	OrigNumFrames
100	100	20	8	m	100	1	7413
Frame#	Time	torso_imu_offset_imu	pelvis_imu_offset_imu	tibia_r_imu_offset_imu	femur_r_imu_offset_imu	tibia_l_imu_offset_imu	femur_l_imu_offset_imu	toes_r_imu_offset_imu	toes_l_imu_offset_imu
				X1	Y1	Z1	X2	Y2	Z2	X3	Y3	Z3	X4	Y4	Z4	X5	Y5	Z5	X6	Y6	Z6	X7	Y7	Z7	X8		Y8	Z8	

1	0	-0.00856705	0.02891221	0.01334472	-0.01029487	-0.03865913	-0.01347070	0.08510882	0.00392845	-0.02781877	0.03075147	-0.00520796	0.10910737	-0.00008373	-0.00677565	-0.00057850	0.01028544	-0.00148326	-0.04734268	-0.13659153	0.00387058	0.05033017	-0.00713564	0.03814547	-0.02798382
2	0.01000000	-0.00773897	0.04786917	0.01841636	-0.00292925	-0.02715641	-0.01023805	0.09990476	0.02697316	-0.04687082	0.03257922	-0.00951881	0.11439412	-0.00525569	-0.00254982	-0.00184210	0.00965389	0.01168100	-0.05230790	-0.12254526	0.01023160	0.04044199	-0.01023360	0.03509524	-0.02532318
3	0.02000000	-0.00498171	0.05947738	0.02948271	0.00647191	-0.00848226	-0.01661359	0.13531401	0.02320212	-0.04690059	0.02664265	-0.00946464	0.11783940	-0.00717805	-0.00082326	0.00017747	0.00344342	0.02084615	-0.06337585	-0.09461486	0.01759884	0.03118292	-0.01230234	0.03022166	-0.02034187
4	0.03000000	-0.00610207	0.06878136	0.04021218	0.01370791	0.00199728	-0.01801159	0.10929193	0.00631558	-0.03331848	0.02000184	-0.00553108	0.11551707	-0.00629066	-0.00322956	0.00341068	0.00046057	0.02298284	-0.07207783	-0.07409725	0.01759186	0.02439616	-0.01042313	0.03168851	-0.01675143
5	0.04000000	0.00030289	0.08353580	0.04691536	0.02317392	0.01013283	-0.01096660	0.08017654	0.00386139	-0.03098226	0.02630512	-0.00012712	0.10599128	-0.00493104	-0.00408934	0.00023970	0.00363836	0.01732667	-0.07610211	-0.05942156	0.01875145	0.01664824	-0.00568504	0.02297484	-0.01404522
6	0.05000000	0.01488922	0.08376142	0.04949589	0.02679816	0.01631160	-0.00786831	0.06612533	0.00994639	-0.02804142	0.03242444	0.00415562	0.09337341	0.00275613	-0.00765840	-0.00454263	0.00944848	0.01670037	-0.06763064	-0.04723402	0.01731645	0.01436513	-0.00351923	0.01690038	-0.01156979
7	0.06000000	0.02421178	0.07272994	0.05484229	0.03327453	0.02033176	-0.00203921	0.04785042	0.00921999	-0.02687929	0.03730095	0.00391629	0.07631846	0.01539080	-0.00596128	-0.01111058	0.02380797	0.01634654	-0.05600281	-0.04707566	0.01540251	0.01245793	-0.00585406	0.01706867	-0.00644108
8	0.07000000	0.02501206	0.06546022	0.05124030	0.04473202	0.01385802	0.00355541	0.03308572	0.00471821	-0.02358175	0.04663792	-0.00434453	0.05744242	0.02726669	0.00064558	-0.01622380	0.03579377	0.02138957	-0.03953647	-0.05175620	0.01796084	0.01467975	-0.00950002	0.01710479	-0.00127175
9	0.08000000	0.02308040	0.06029797	0.04440888	0.05278157	0.00602563	0.00710176	0.02257384	0.00392921	-0.01501156	0.06420506	-0.00990291	0.03886389	0.03316777	0.00198289	-0.01935889	0.04512112	0.02337325	-0.02034603	-0.04540368	0.01732024	0.01534409	-0.00956265	0.01917057	-0.00221135
10	0.09000000	0.02041612	0.05573008	0.03128157	0.06065626	-0.00016127	0.01103351	0.00980585	0.00335655	-0.00685463	0.07951884	-0.00642027	0.01757970	0.03326410	0.00254921	-0.02656556	0.05325469	0.01905125	-0.00495960	-0.03896212	0.01646724	0.01531485	-0.00685643	0.01979426	-0.00580356
11	0.10000000	0.01945359	0.05273652	0.02513060	0.06628057	-0.00262309	0.01467469	0.01061745	0.01555054	0.00517915	0.08037381	-0.00096278	0.00545680	0.02340152	-0.00100246	-0.02794872	0.05933176	0.00673605	0.00348674	-0.03067932	0.01375753	0.01954415	-0.00308416	0.01790098	-0.00809979
12	0.11000000	0.01742213	0.05265337	0.01430302	0.07013012	-0.00222884	0.01762383	0.01662392	0.01249026	0.01116162	0.07304786	0.01475226	-0.01028905	0.00504667	-0.00172025	-0.03410419	0.06498766	-0.00462068	0.00422753	-0.02889170	0.00863087	0.02134955	-0.00452974	0.01899032	-0.00837605
13	0.12000000	0.01881217	0.05495590	0.00867277	0.06337350	-0.00090620	0.01610141	0.01545935	0.00706545	0.01636240	0.05808156	0.02283093	-0.02249364	-0.00357940	0.00288471	-0.03535663	0.06489329	-0.01612221	-0.00213108	-0.02388434	0.00886352	0.02515591	-0.00385261	0.01732432	-0.00896188
14	0.13000000	0.02236912	0.06251521	0.00894587	0.05771693	0.00799601	0.01627863	0.01443229	0.00890743	0.02271051	0.05025920	0.02129421	-0.02506355	0.00303727	0.00599479	-0.02912891	0.05720976	-0.01885365	-0.00234166	-0.01473682	0.00547884	0.02198167	-0.00398587	0.01686357	-0.00569844
15	0.14000000	0.02005478	0.07588845	0.01372859	0.04606198	0.01014821	0.01399253	0.01700869	0.01243588	0.02538664	0.04866419	0.02279086	-0.02737709	0.00595342	0.01083752	-0.02647218	0.05137595	-0.01558704	-0.00364841	-0.00902283	0.00535641	0.01860330	-0.00760842	0.01756457	-0.00338045
16	0.15000000	0.01506637	0.08859015	0.02077834	0.02731847	0.01004346	0.01110032	0.01301675	0.01418247	0.02664439	0.04361585	0.02148115	-0.02497422	0.01409438	0.01035644	-0.02163092	0.04207878	-0.01392255	-0.00467018	-0.00156990	0.00669437	0.01707859	-0.01030829	0.02166522	-0.00417841
17	0.16000000	0.01011892	0.09808953	0.02179812	0.01180283	0.00778154	0.00944780	0.00289985	0.01581079	0.02829840	0.04049066	0.01984252	-0.02141498	0.02405069	0.00965454	-0.01840302	0.02515145	-0.00353541	0.00009778	0.00410156	0.00686652	0.01406526	-0.01115790	0.02653218	-0.00142627
18	0.17000000	0.00737185	0.11027971	0.02034684	-0.00421263	0.00154171	0.00656921	-0.00572612	0.01352125	0.02345918	0.03683307	0.02285425	-0.01338203	0.02637295	0.00732395	-0.01294069	0.01259067	0.00407463	0.00414567	0.00853363	0.01126057	0.00807887	-0.01007174	0.02203143	-0.00122735
19	0.18000000	0.00411021	0.11628409	0.01556374	-0.01666814	-0.00284709	0.00428405	-0.01863138	0.01269477	0.02067387	0.01654547	0.02368436	-0.01072371	0.02644491	-0.00153472	-0.01358098	-0.00029424	0.00741970	0.00671016	0.01372692	0.00978019	0.00430352	-0.00445581	0.01805494	-0.00280989
20	0.19000000	-0.00246670	0.11162025	0.00877565	-0.02546782	-0.00477696	0.00189510	-0.03975776	0.00500193	0.01615329	-0.00805016	0.02430872	-0.00130517	0.01984336	-0.00541298	-0.01493977	-0.01222144	0.00108619	0.01036858	0.01809781	0.01264384	0.00019130	-0.00349269	0.01501020	-0.00094284
